<?xml version="1.0" encoding="UTF-8" standalone="no"?><svg xmlns="http://www.w3.org/2000/svg" xmlns:xlink="http://www.w3.org/1999/xlink" contentScriptType="application/ecmascript" contentStyleType="text/css" height="438px" preserveAspectRatio="none" style="width:390px;height:438px;" version="1.1" viewBox="0 0 390 438" width="390px" zoomAndPan="magnify"><defs><filter height="300%" id="fuwn2qlr7tnqx" width="300%" x="-1" y="-1"><feGaussianBlur result="blurOut" stdDeviation="2.0"/><feColorMatrix in="blurOut" result="blurOut2" type="matrix" values="0 0 0 0 0 0 0 0 0 0 0 0 0 0 0 0 0 0 .4 0"/><feOffset dx="4.0" dy="4.0" in="blurOut2" result="blurOut3"/><feBlend in="SourceGraphic" in2="blurOut3" mode="normal"/></filter></defs><g><rect fill="#FEFECE" filter="url(#fuwn2qlr7tnqx)" height="419.3359" id="Order" style="stroke: #A80036; stroke-width: 1.5;" width="170" x="209" y="8"/><ellipse cx="272.25" cy="24" fill="#ADD1B2" rx="11" ry="11" style="stroke: #A80036; stroke-width: 1.0;"/><path d="M275.2188,29.6406 Q274.6406,29.9375 274,30.0859 Q273.3594,30.2344 272.6563,30.2344 Q270.1563,30.2344 268.8359,28.5859 Q267.5156,26.9375 267.5156,23.8125 Q267.5156,20.6875 268.8359,19.0313 Q270.1563,17.375 272.6563,17.375 Q273.3594,17.375 274.0078,17.5313 Q274.6563,17.6875 275.2188,17.9844 L275.2188,20.7031 Q274.5938,20.125 274,19.8516 Q273.4063,19.5781 272.7813,19.5781 Q271.4375,19.5781 270.75,20.6484 Q270.0625,21.7188 270.0625,23.8125 Q270.0625,25.9063 270.75,26.9766 Q271.4375,28.0469 272.7813,28.0469 Q273.4063,28.0469 274,27.7734 Q274.5938,27.5 275.2188,26.9219 L275.2188,29.6406 Z "/><text fill="#000000" font-family="sans-serif" font-size="12" lengthAdjust="spacingAndGlyphs" textLength="35" x="292.75" y="28.1543">Order</text><line style="stroke: #A80036; stroke-width: 1.5;" x1="210" x2="378" y1="40" y2="40"/><text fill="#000000" font-family="sans-serif" font-size="11" lengthAdjust="spacingAndGlyphs" textLength="30" x="215" y="54.2104">//主键</text><text fill="#000000" font-family="sans-serif" font-size="11" lengthAdjust="spacingAndGlyphs" textLength="52" x="215" y="67.0151">String id;</text><text fill="#000000" font-family="sans-serif" font-size="11" lengthAdjust="spacingAndGlyphs" textLength="0" x="219" y="79.8198"/><text fill="#000000" font-family="sans-serif" font-size="11" lengthAdjust="spacingAndGlyphs" textLength="52" x="215" y="92.6245">//订单编号</text><text fill="#000000" font-family="sans-serif" font-size="11" lengthAdjust="spacingAndGlyphs" textLength="118" x="215" y="105.4292">String orderNumber;</text><text fill="#000000" font-family="sans-serif" font-size="11" lengthAdjust="spacingAndGlyphs" textLength="0" x="219" y="118.2339"/><text fill="#000000" font-family="sans-serif" font-size="11" lengthAdjust="spacingAndGlyphs" textLength="40" x="215" y="131.0386">//用户Id</text><text fill="#000000" font-family="sans-serif" font-size="11" lengthAdjust="spacingAndGlyphs" textLength="71" x="215" y="143.8433">Long userId;</text><text fill="#000000" font-family="sans-serif" font-size="11" lengthAdjust="spacingAndGlyphs" textLength="0" x="219" y="156.6479"/><text fill="#000000" font-family="sans-serif" font-size="11" lengthAdjust="spacingAndGlyphs" textLength="52" x="215" y="169.4526">//用户模型</text><text fill="#000000" font-family="sans-serif" font-size="11" lengthAdjust="spacingAndGlyphs" textLength="61" x="215" y="182.2573">User user;</text><text fill="#000000" font-family="sans-serif" font-size="11" lengthAdjust="spacingAndGlyphs" textLength="0" x="219" y="195.062"/><text fill="#000000" font-family="sans-serif" font-size="11" lengthAdjust="spacingAndGlyphs" textLength="52" x="215" y="207.8667">//商品模型</text><text fill="#000000" font-family="sans-serif" font-size="11" lengthAdjust="spacingAndGlyphs" textLength="158" x="215" y="220.6714">ProductDetail productDetail;</text><text fill="#000000" font-family="sans-serif" font-size="11" lengthAdjust="spacingAndGlyphs" textLength="0" x="219" y="233.4761"/><text fill="#000000" font-family="sans-serif" font-size="11" lengthAdjust="spacingAndGlyphs" textLength="40" x="215" y="246.2808">//商品id</text><text fill="#000000" font-family="sans-serif" font-size="11" lengthAdjust="spacingAndGlyphs" textLength="95" x="215" y="259.0854">String productId;</text><text fill="#000000" font-family="sans-serif" font-size="11" lengthAdjust="spacingAndGlyphs" textLength="0" x="219" y="271.8901"/><text fill="#000000" font-family="sans-serif" font-size="11" lengthAdjust="spacingAndGlyphs" textLength="63" x="215" y="284.6948">//订单总价格</text><text fill="#000000" font-family="sans-serif" font-size="11" lengthAdjust="spacingAndGlyphs" textLength="96" x="215" y="297.4995">Double totalPrice</text><text fill="#000000" font-family="sans-serif" font-size="11" lengthAdjust="spacingAndGlyphs" textLength="0" x="219" y="310.3042"/><text fill="#000000" font-family="sans-serif" font-size="11" lengthAdjust="spacingAndGlyphs" textLength="52" x="215" y="323.1089">//订单状态</text><text fill="#000000" font-family="sans-serif" font-size="11" lengthAdjust="spacingAndGlyphs" textLength="114" x="215" y="335.9136">OrderStatus status;</text><text fill="#000000" font-family="sans-serif" font-size="11" lengthAdjust="spacingAndGlyphs" textLength="0" x="219" y="348.7183"/><text fill="#000000" font-family="sans-serif" font-size="11" lengthAdjust="spacingAndGlyphs" textLength="52" x="215" y="361.5229">//创建时间</text><text fill="#000000" font-family="sans-serif" font-size="11" lengthAdjust="spacingAndGlyphs" textLength="101" x="215" y="374.3276">Date gmtCreated;</text><text fill="#000000" font-family="sans-serif" font-size="11" lengthAdjust="spacingAndGlyphs" textLength="0" x="219" y="387.1323"/><text fill="#000000" font-family="sans-serif" font-size="11" lengthAdjust="spacingAndGlyphs" textLength="52" x="215" y="399.937">//更新时间</text><text fill="#000000" font-family="sans-serif" font-size="11" lengthAdjust="spacingAndGlyphs" textLength="103" x="215" y="412.7417">Date gmtModified;</text><line style="stroke: #A80036; stroke-width: 1.5;" x1="210" x2="378" y1="419.3359" y2="419.3359"/><rect fill="#FEFECE" filter="url(#fuwn2qlr7tnqx)" height="188.8516" id="OrderStatus" style="stroke: #A80036; stroke-width: 1.5;" width="140" x="6" y="123"/><ellipse cx="35.4" cy="139" fill="#EB937F" rx="11" ry="11" style="stroke: #A80036; stroke-width: 1.0;"/><path d="M39.5094,145 L31.7906,145 L31.7906,132.6094 L39.5094,132.6094 L39.5094,134.7656 L34.2438,134.7656 L34.2438,137.4375 L39.0094,137.4375 L39.0094,139.5938 L34.2438,139.5938 L34.2438,142.8438 L39.5094,142.8438 L39.5094,145 Z "/><text fill="#000000" font-family="sans-serif" font-size="12" lengthAdjust="spacingAndGlyphs" textLength="76" x="52.6" y="143.1543">OrderStatus</text><line style="stroke: #A80036; stroke-width: 1.5;" x1="7" x2="145" y1="155" y2="155"/><text fill="#000000" font-family="sans-serif" font-size="11" lengthAdjust="spacingAndGlyphs" textLength="41" x="12" y="169.2104">//代付款</text><text fill="#000000" font-family="sans-serif" font-size="11" lengthAdjust="spacingAndGlyphs" textLength="96" x="12" y="182.0151">WAIT_BUYER_PAY</text><text fill="#000000" font-family="sans-serif" font-size="11" lengthAdjust="spacingAndGlyphs" textLength="0" x="16" y="194.8198"/><text fill="#000000" font-family="sans-serif" font-size="11" lengthAdjust="spacingAndGlyphs" textLength="52" x="12" y="207.6245">//订单关闭</text><text fill="#000000" font-family="sans-serif" font-size="11" lengthAdjust="spacingAndGlyphs" textLength="88" x="12" y="220.4292">TRADE_CLOSED</text><text fill="#000000" font-family="sans-serif" font-size="11" lengthAdjust="spacingAndGlyphs" textLength="0" x="16" y="233.2339"/><text fill="#000000" font-family="sans-serif" font-size="11" lengthAdjust="spacingAndGlyphs" textLength="52" x="12" y="246.0386">//支付成功</text><text fill="#000000" font-family="sans-serif" font-size="11" lengthAdjust="spacingAndGlyphs" textLength="128" x="12" y="258.8433">TRADE_PAID_SUCCESS</text><text fill="#000000" font-family="sans-serif" font-size="11" lengthAdjust="spacingAndGlyphs" textLength="0" x="16" y="271.6479"/><text fill="#000000" font-family="sans-serif" font-size="11" lengthAdjust="spacingAndGlyphs" textLength="52" x="12" y="284.4526">//支付失败</text><text fill="#000000" font-family="sans-serif" font-size="11" lengthAdjust="spacingAndGlyphs" textLength="110" x="12" y="297.2573">TRADE_PAID_FAILED</text><line style="stroke: #A80036; stroke-width: 1.5;" x1="7" x2="145" y1="303.8516" y2="303.8516"/><path d="M151.3529,217.5 C169.8475,217.5 189.775,217.5 208.7008,217.5 " fill="none" id="OrderStatus&lt;-Order" style="stroke: #A80036; stroke-width: 1.0;"/><polygon fill="#A80036" points="146.1765,217.5,155.1765,221.5,151.1765,217.5,155.1765,213.5,146.1765,217.5" style="stroke: #A80036; stroke-width: 1.0;"/><text fill="#000000" font-family="sans-serif" font-size="13" lengthAdjust="spacingAndGlyphs" textLength="26" x="164.5" y="210.5669">关联</text></g></svg>